<svg xmlns="http://www.w3.org/2000/svg" viewBox="0 0 100 100" width="100" height="100">
  <!-- Fuselage -->
  <ellipse cx="50" cy="50" rx="6" ry="38" fill="white" opacity="0.95"/>
  <!-- Nose cone -->
  <ellipse cx="50" cy="14" rx="4" ry="7" fill="white" opacity="0.95"/>
  <!-- Main wings -->
  <path d="M50,38 C50,38 18,52 10,58 L10,62 C10,62 38,54 50,52 C62,54 90,62 90,62 L90,58 C82,52 50,38 50,38 Z" fill="white" opacity="0.90"/>
  <!-- Tail wings -->
  <path d="M50,74 C50,74 34,82 28,86 L28,89 C28,89 40,84 50,81 C60,84 72,89 72,89 L72,86 C66,82 50,74 50,74 Z" fill="white" opacity="0.88"/>
  <!-- Engine pods left -->
  <ellipse cx="28" cy="54" rx="4" ry="8" fill="rgba(200,220,255,0.85)"/>
  <!-- Engine pods right -->
  <ellipse cx="72" cy="54" rx="4" ry="8" fill="rgba(200,220,255,0.85)"/>
  <!-- Cockpit window -->
  <ellipse cx="50" cy="18" rx="2.5" ry="3.5" fill="rgba(100,180,255,0.7)"/>
</svg>
